<svg id="visual" viewBox="0 0 3840 2160" width="3840" height="2160" xmlns="http://www.w3.org/2000/svg" xmlns:xlink="http://www.w3.org/1999/xlink" version="1.1"><path d="M0 152L295 152L295 152L591 152L591 152L886 152L886 282L1182 282L1182 303L1477 303L1477 131L1772 131L1772 109L2068 109L2068 195L2363 195L2363 260L2658 260L2658 325L2954 325L2954 303L3249 303L3249 174L3545 174L3545 325L3840 325L3840 282L3840 0L3840 0L3545 0L3545 0L3249 0L3249 0L2954 0L2954 0L2658 0L2658 0L2363 0L2363 0L2068 0L2068 0L1772 0L1772 0L1477 0L1477 0L1182 0L1182 0L886 0L886 0L591 0L591 0L295 0L295 0L0 0Z" fill="#0a3f7e"></path><path d="M0 282L295 282L295 303L591 303L591 239L886 239L886 368L1182 368L1182 519L1477 519L1477 260L1772 260L1772 174L2068 174L2068 390L2363 390L2363 433L2658 433L2658 476L2954 476L2954 433L3249 433L3249 347L3545 347L3545 433L3840 433L3840 476L3840 280L3840 323L3545 323L3545 172L3249 172L3249 301L2954 301L2954 323L2658 323L2658 258L2363 258L2363 193L2068 193L2068 107L1772 107L1772 129L1477 129L1477 301L1182 301L1182 280L886 280L886 150L591 150L591 150L295 150L295 150L0 150Z" fill="#053a73"></path><path d="M0 347L295 347L295 476L591 476L591 303L886 303L886 476L1182 476L1182 606L1477 606L1477 390L1772 390L1772 303L2068 303L2068 476L2363 476L2363 584L2658 584L2658 584L2954 584L2954 606L3249 606L3249 411L3545 411L3545 498L3840 498L3840 649L3840 474L3840 431L3545 431L3545 345L3249 345L3249 431L2954 431L2954 474L2658 474L2658 431L2363 431L2363 388L2068 388L2068 172L1772 172L1772 258L1477 258L1477 517L1182 517L1182 366L886 366L886 237L591 237L591 301L295 301L295 280L0 280Z" fill="#013568"></path><path d="M0 843L295 843L295 1038L591 1038L591 908L886 908L886 757L1182 757L1182 951L1477 951L1477 1081L1772 1081L1772 995L2068 995L2068 1016L2363 1016L2363 1016L2658 1016L2658 1038L2954 1038L2954 1038L3249 1038L3249 995L3545 995L3545 973L3840 973L3840 1103L3840 647L3840 496L3545 496L3545 409L3249 409L3249 604L2954 604L2954 582L2658 582L2658 582L2363 582L2363 474L2068 474L2068 301L1772 301L1772 388L1477 388L1477 604L1182 604L1182 474L886 474L886 301L591 301L591 474L295 474L295 345L0 345Z" fill="#00305e"></path><path d="M0 973L295 973L295 1167L591 1167L591 1038L886 1038L886 930L1182 930L1182 1016L1477 1016L1477 1189L1772 1189L1772 1167L2068 1167L2068 1167L2363 1167L2363 1103L2658 1103L2658 1211L2954 1211L2954 1146L3249 1146L3249 1081L3545 1081L3545 1124L3840 1124L3840 1211L3840 1101L3840 971L3545 971L3545 993L3249 993L3249 1036L2954 1036L2954 1036L2658 1036L2658 1014L2363 1014L2363 1014L2068 1014L2068 993L1772 993L1772 1079L1477 1079L1477 949L1182 949L1182 755L886 755L886 906L591 906L591 1036L295 1036L295 841L0 841Z" fill="#002b53"></path><path d="M0 1167L295 1167L295 1383L591 1383L591 1189L886 1189L886 1146L1182 1146L1182 1189L1477 1189L1477 1427L1772 1427L1772 1427L2068 1427L2068 1383L2363 1383L2363 1491L2658 1491L2658 1491L2954 1491L2954 1470L3249 1470L3249 1211L3545 1211L3545 1254L3840 1254L3840 1578L3840 1209L3840 1122L3545 1122L3545 1079L3249 1079L3249 1144L2954 1144L2954 1209L2658 1209L2658 1101L2363 1101L2363 1165L2068 1165L2068 1165L1772 1165L1772 1187L1477 1187L1477 1014L1182 1014L1182 928L886 928L886 1036L591 1036L591 1165L295 1165L295 971L0 971Z" fill="#002649"></path><path d="M0 1254L295 1254L295 1470L591 1470L591 1275L886 1275L886 1211L1182 1211L1182 1275L1477 1275L1477 1578L1772 1578L1772 1491L2068 1491L2068 1535L2363 1535L2363 1578L2658 1578L2658 1578L2954 1578L2954 1556L3249 1556L3249 1297L3545 1297L3545 1297L3840 1297L3840 1621L3840 1576L3840 1252L3545 1252L3545 1209L3249 1209L3249 1468L2954 1468L2954 1489L2658 1489L2658 1489L2363 1489L2363 1381L2068 1381L2068 1425L1772 1425L1772 1425L1477 1425L1477 1187L1182 1187L1182 1144L886 1144L886 1187L591 1187L591 1381L295 1381L295 1165L0 1165Z" fill="#00213f"></path><path d="M0 1880L295 1880L295 1837L591 1837L591 1794L886 1794L886 1772L1182 1772L1182 1859L1477 1859L1477 1837L1772 1837L1772 1751L2068 1751L2068 1988L2363 1988L2363 1880L2658 1880L2658 1967L2954 1967L2954 1859L3249 1859L3249 1751L3545 1751L3545 1772L3840 1772L3840 1902L3840 1619L3840 1295L3545 1295L3545 1295L3249 1295L3249 1554L2954 1554L2954 1576L2658 1576L2658 1576L2363 1576L2363 1533L2068 1533L2068 1489L1772 1489L1772 1576L1477 1576L1477 1273L1182 1273L1182 1209L886 1209L886 1273L591 1273L591 1468L295 1468L295 1252L0 1252Z" fill="#011c35"></path><path d="M0 2075L295 2075L295 1988L591 1988L591 2031L886 2031L886 1988L1182 1988L1182 2010L1477 2010L1477 2075L1772 2075L1772 1988L2068 1988L2068 2075L2363 2075L2363 2010L2658 2010L2658 2075L2954 2075L2954 2075L3249 2075L3249 1967L3545 1967L3545 2053L3840 2053L3840 2031L3840 1900L3840 1770L3545 1770L3545 1749L3249 1749L3249 1857L2954 1857L2954 1965L2658 1965L2658 1878L2363 1878L2363 1986L2068 1986L2068 1749L1772 1749L1772 1835L1477 1835L1477 1857L1182 1857L1182 1770L886 1770L886 1792L591 1792L591 1835L295 1835L295 1878L0 1878Z" fill="#02172b"></path><path d="M0 2161L295 2161L295 2161L591 2161L591 2161L886 2161L886 2161L1182 2161L1182 2161L1477 2161L1477 2161L1772 2161L1772 2161L2068 2161L2068 2161L2363 2161L2363 2161L2658 2161L2658 2161L2954 2161L2954 2161L3249 2161L3249 2161L3545 2161L3545 2161L3840 2161L3840 2161L3840 2029L3840 2051L3545 2051L3545 1965L3249 1965L3249 2073L2954 2073L2954 2073L2658 2073L2658 2008L2363 2008L2363 2073L2068 2073L2068 1986L1772 1986L1772 2073L1477 2073L1477 2008L1182 2008L1182 1986L886 1986L886 2029L591 2029L591 1986L295 1986L295 2073L0 2073Z" fill="#001122"></path></svg>